<svg xmlns="http://www.w3.org/2000/svg" viewBox="0 0 220 220">
  <circle cx="110" cy="110" r="102" fill="#111827" stroke="#94a3b8" stroke-width="6"/>
  <g transform="translate(110,110)">
    <path d="M0 0 L0 -96 A96 96 0 0 1 54 -79 Z" fill="#ef4444"/>
    <path d="M0 0 L54 -79 A96 96 0 0 1 90 -35 Z" fill="#f59e0b"/>
    <path d="M0 0 L90 -35 A96 96 0 0 1 96 20 Z" fill="#eab308"/>
    <path d="M0 0 L96 20 A96 96 0 0 1 70 66 Z" fill="#22c55e"/>
    <path d="M0 0 L70 66 A96 96 0 0 1 20 96 Z" fill="#14b8a6"/>
    <path d="M0 0 L20 96 A96 96 0 0 1 -35 90 Z" fill="#3b82f6"/>
    <path d="M0 0 L-35 90 A96 96 0 0 1 -79 54 Z" fill="#6366f1"/>
    <path d="M0 0 L-79 54 A96 96 0 0 1 -96 0 Z" fill="#8b5cf6"/>
    <path d="M0 0 L-96 0 A96 96 0 0 1 -79 -54 Z" fill="#a855f7"/>
    <path d="M0 0 L-79 -54 A96 96 0 0 1 -35 -90 Z" fill="#ec4899"/>
    <path d="M0 0 L-35 -90 A96 96 0 0 1 0 -96 Z" fill="#f43f5e"/>
  </g>
  <circle cx="110" cy="110" r="18" fill="#f8fafc"/>
  <polygon points="110,4 122,24 98,24" fill="#f8fafc"/>
</svg>
